<!DOCTYPE svg PUBLIC "-//W3C//DTD SVG 1.1//EN" "http://www.w3.org/Graphics/SVG/1.1/DTD/svg11.dtd">
<!-- Uploaded to: SVG Repo, www.svgrepo.com, Transformed by: SVG Repo Mixer Tools -->
<svg fill="#000000" width="64px" height="64px" viewBox="0 0 1024 1024" xmlns="http://www.w3.org/2000/svg">
<g id="SVGRepo_bgCarrier" stroke-width="0"/>
<g id="SVGRepo_tracerCarrier" stroke-linecap="round" stroke-linejoin="round"/>
<g id="SVGRepo_iconCarrier">
<path d="M595.967 911.36c16.962 0 30.72-13.758 30.72-30.72V143.36c0-16.962-13.758-30.72-30.72-30.72H71.679c-16.962 0-30.72 13.758-30.72 30.72v737.28c0 16.962 13.758 30.72 30.72 30.72h524.288zm0 40.96H71.679c-39.583 0-71.68-32.097-71.68-71.68V143.36c0-39.583 32.097-71.68 71.68-71.68h524.288c39.583 0 71.68 32.097 71.68 71.68v737.28c0 39.583-32.097 71.68-71.68 71.68z"/>
<path d="M645.148 224.854a296.486 296.486 0 0142.117-2.987c162.595 0 294.4 131.805 294.4 294.4s-131.805 294.4-294.4 294.4c-13.785 0-27.467-.95-40.992-2.826l-5.63 40.571a339.047 339.047 0 0046.622 3.215c185.217 0 335.36-150.143 335.36-335.36s-150.143-335.36-335.36-335.36a337.521 337.521 0 00-47.933 3.402l5.816 40.545z"/>
<path d="M650.189 452.225c11.177-6.484 23.848-9.943 37.073-9.943 40.862 0 73.984 33.122 73.984 73.984s-33.122 73.984-73.984 73.984c-12.975 0-25.409-3.324-36.412-9.569l-20.216 35.624c17.129 9.72 36.521 14.905 56.628 14.905 63.484 0 114.944-51.46 114.944-114.944s-51.46-114.944-114.944-114.944c-20.495 0-40.249 5.392-57.627 15.473l20.554 35.429z"/>
<path d="M778.143 536.747h234.24v-40.96h-234.24zm-22.895-87.023L920.88 284.092l-28.963-28.963-165.632 165.632z"/>
</g>
</svg>